<?xml version="1.0" encoding="UTF-8"?>
<svg width="176px" height="42px" viewBox="0 0 176 42" version="1.1" xmlns="http://www.w3.org/2000/svg" xmlns:xlink="http://www.w3.org/1999/xlink">
    <!-- Generator: Sketch 59 (86127) - https://sketch.com -->
    <title>Artboard</title>
    <desc>Created with Sketch.</desc>
    <g id="Artboard" stroke="none" stroke-width="1" fill="none" fill-rule="evenodd">
        <g id="Group-2">
            <g id="Group" transform="translate(-0.000000, 0.000000)" fill="#008DFF">
                <path d="M3.10857143,32.518419 C8.13695896,21.642104 13.0895187,10.8689162 18.1376447,0 L26.5783286,0 C22.2358546,9.35955 18.2223457,18.3102448 13.8971429,27.6771937 C10.1616283,28.5773875 6.25686509,30.2864314 3.10857143,32.518419 Z M38.116458,41.4676523 C33.4754389,31.4175426 28.8418218,21.3649666 24.2008026,11.3173232 C25.6195086,8.27886063 26.9691298,5.20587004 28.4396494,2.19207028 C33.9738365,14.2102751 39.5129582,26.2260136 45.0742857,38.2294206 C42.7846176,39.3663778 40.4332666,40.3824871 38.116458,41.4676523 Z M-3.12638804e-13,38.5471146 C8.23359801,30.2983366 18.1078837,27.4057806 29.6228571,29.8694466 C31.0218246,33.0065606 32.5985767,36.0940749 33.9950769,39.2336552 C31.0466357,37.6996262 27.7749763,36.8092974 24.4613725,36.5996632 C19.5094718,36.2198554 14.3330454,37.0534596 10.0399176,39.6430584 C9.05299171,40.2916913 7.93837843,40.9699195 7.22285714,41.9268379 C3.5047619,40.1608564 1.09714286,39.0342819 -3.12638804e-13,38.5471146 Z" id="Shape" fill-rule="nonzero"></path>
                <path d="M24.1856581,16.9718717 L27.5723499,24.3360785 C27.9728988,25.2070532 27.5908884,26.2375259 26.719106,26.6377035 C26.4100857,26.7795542 26.0661871,26.8276651 25.730054,26.7760704 C24.4007144,26.5720237 23.1992679,26.4613507 22.1257143,26.4440514 C21.084477,26.4272728 20.080258,26.4705931 19.1130571,26.5740122 C18.4101467,26.649172 17.7793399,26.1408073 17.7041107,25.438548 C17.6797542,25.2111823 17.7168635,24.9814507 17.8115732,24.7732824 L21.358345,16.9776129 C21.7135569,16.1968707 22.6350165,15.8516435 23.4164826,16.2065263 C23.7566132,16.3609879 24.0296719,16.6326869 24.1856581,16.9718717 Z" id="Path-2" fill-opacity="0.5"></path>
            </g>
            <path d="M77.3057829,11.5943692 L77.3057829,31.2396047 L72.1042286,31.2396047 L72.1042286,29.7042056 C70.3441071,31.1214971 68.1767928,31.8301429 65.6022857,31.8301429 C63.0015086,31.8301429 60.7422478,30.8459126 58.8245029,28.8774522 C56.9067579,26.9089917 55.9478857,24.4287315 55.9478857,21.4366716 C55.9478857,18.4446117 56.9133257,15.9577903 58.8442057,13.9762064 C60.7750869,11.9946224 63.0277805,11.0038311 65.6022857,11.0038311 C68.2030629,11.0038311 70.3703771,11.7256003 72.1042286,13.1691376 L72.1042286,11.5943692 L77.3057829,11.5943692 Z M66.5086171,27.3026838 C67.9797642,27.3026838 69.2801528,26.758076 70.4097829,25.6688616 C71.5394129,24.5796466 72.1042286,23.1689168 72.1042286,21.4366716 C72.1042286,19.7044264 71.5394129,18.2871348 70.4097829,17.184797 C69.2801528,16.0824591 67.9797642,15.5312902 66.5086171,15.5312902 C64.9061137,15.5312902 63.5860223,16.0693356 62.5483429,17.1454277 C61.5106592,18.2215199 60.9918171,19.6519337 60.9918171,21.4366716 C60.9918171,23.2214089 61.5106592,24.6452622 62.5483429,25.7082308 C63.5860265,26.7711995 64.9061185,27.3026838 66.5086171,27.3026838 Z M79.3353977,26.0428691 L84.5763577,24.9799004 C84.812792,26.7646395 86.1657213,27.6570085 88.6351462,27.6570067 C89.5808834,27.6570067 90.329592,27.4732841 90.881272,27.1058377 C91.432952,26.7383914 91.708792,26.2659609 91.708792,25.6885462 C91.708792,24.8224236 90.9863535,24.2318855 89.5414777,23.9169318 L85.5220948,23.0901784 C83.7357026,22.7227326 82.3630705,22.0534561 81.4041977,21.0823487 C80.4453249,20.1112419 79.9658891,18.9170422 79.9658891,17.4997506 C79.9658891,15.5837828 80.6948948,14.0221367 82.1529062,12.8148147 C83.6109177,11.6074927 85.5615005,11.0038311 88.0046548,11.0038311 C90.2901862,11.0038311 92.2013634,11.5418765 93.7381862,12.6179687 C95.2750091,13.6940608 96.214179,15.0982289 96.5556948,16.8304741 L91.5905748,17.8147043 C91.4854933,17.0010744 91.0980034,16.3449201 90.4281062,15.8462438 C89.7582091,15.3475676 88.8978506,15.0982289 87.847032,15.0982289 C86.9012948,15.0982289 86.2182626,15.2885138 85.7979348,15.6690824 C85.377607,16.049651 85.1674434,16.5023969 85.1674434,17.0273201 C85.1674434,17.867197 85.7585291,18.4183659 86.9407005,18.6808269 L91.6299805,19.7044264 C93.3112906,20.0718727 94.5919763,20.7477104 95.4720377,21.7319407 C96.352099,22.7161709 96.7921291,23.8906854 96.7921291,25.2554849 C96.7921291,27.3814222 96.010582,29.0086833 94.4474891,30.1372669 C92.884389,31.2658511 90.7893189,31.8301429 88.1622777,31.8301429 C85.8242055,31.8301429 83.8276491,31.3511506 82.1726091,30.3931667 C80.5175691,29.4351822 79.571832,27.9850832 79.3353977,26.0428691 Z M119.858178,11.5943692 L119.858178,31.2396047 L114.656624,31.2396047 L114.656624,29.7042056 C112.896502,31.1214971 110.729188,31.8301429 108.154681,31.8301429 C105.553904,31.8301429 103.294643,30.8459126 101.376898,28.8774522 C99.4591532,26.9089917 98.5002811,24.4287315 98.5002811,21.4366716 C98.5002811,18.4446117 99.4657211,15.9577903 101.396601,13.9762064 C103.327482,11.9946224 105.580176,11.0038311 108.154681,11.0038311 C110.755458,11.0038311 112.922772,11.7256003 114.656624,13.1691376 L114.656624,11.5943692 L119.858178,11.5943692 Z M109.061012,27.3026838 C110.53216,27.3026838 111.832548,26.758076 112.962178,25.6688616 C114.091808,24.5796466 114.656624,23.1689168 114.656624,21.4366716 C114.656624,19.7044264 114.091808,18.2871348 112.962178,17.184797 C111.832548,16.0824591 110.53216,15.5312902 109.061012,15.5312902 C107.458509,15.5312902 106.138418,16.0693356 105.100738,17.1454277 C104.063055,18.2215199 103.544212,19.6519337 103.544212,21.4366716 C103.544212,23.2214089 104.063055,24.6452622 105.100738,25.7082308 C106.138422,26.7711995 107.458514,27.3026838 109.061012,27.3026838 Z M136.81945,21.6728868 L143.43961,31.2396047 L137.252913,31.2396047 L132.95769,25.0192696 L128.701873,31.2396047 L122.515176,31.2396047 L129.135336,21.6728868 L122.515176,11.555 L128.701873,11.555 L132.95769,18.1690272 L137.252913,11.555 L143.43961,11.555 L136.81945,21.6728868 Z M151.574002,31.2396047 L146.372448,31.2396047 L146.372448,11.5943692 L151.574002,11.5943692 L151.574002,31.2396047 Z M159.511366,11.555 L164.71292,24.1137778 L170.150908,11.555 L175.943548,11.555 L165.942857,34.6193281 L164.515891,37.9323704 L158.723251,37.9323704 L160.141423,34.6381758 L161.875708,30.6096974 L153.718726,11.555 L159.511366,11.555 Z M148.973225,3.13135933 C149.879892,3.13135933 150.639892,3.44325491 151.253225,4.06704849 C151.866558,4.69084208 152.173225,5.42744845 152.173225,6.27686759 C152.173225,7.15283191 151.866558,7.88280137 151.253225,8.4667784 C150.639892,9.05075543 149.879892,9.34274273 148.973225,9.34274273 C148.039891,9.34274273 147.273225,9.05075543 146.673225,8.4667784 C146.073225,7.88280137 145.773225,7.15283191 145.773225,6.27686759 C145.773225,5.42744845 146.079891,4.69084208 146.693225,4.06704849 C147.306559,3.44325491 148.066559,3.13135933 148.973225,3.13135933 Z" id="asaxiy-copy-2" fill="#13306A" fill-rule="nonzero"></path>
        </g>
    </g>
</svg>